<?xml version="1.0" encoding="UTF-8"?>
<!DOCTYPE svg PUBLIC "-//W3C//DTD SVG 1.1//EN" "http://www.w3.org/Graphics/SVG/1.1/DTD/svg11.dtd">
<svg width="194mm" height="116mm" viewBox="0 0 19400 11600" version="1.1" xmlns="http://www.w3.org/2000/svg" stroke-width="28.222" stroke-linejoin="round" xml:space="preserve">
 <path fill="rgb(255,255,255)" stroke="none" d="M 9684,11564 L 0,11564 0,0 19367,0 19367,11564 9684,11564 Z"/>
 <path fill="none" stroke="rgb(179,179,179)" stroke-linejoin="round" d="M 9090,9705 L 2019,9705 2019,1576 16161,1576 16161,9705 9090,9705 Z"/>
 <path fill="none" stroke="rgb(179,179,179)" stroke-linejoin="round" d="M 16160,9704 L 2019,9704"/>
 <path fill="none" stroke="rgb(179,179,179)" stroke-linejoin="round" d="M 16160,8078 L 2019,8078"/>
 <path fill="none" stroke="rgb(179,179,179)" stroke-linejoin="round" d="M 16160,6452 L 2019,6452"/>
 <path fill="none" stroke="rgb(179,179,179)" stroke-linejoin="round" d="M 16160,4827 L 2019,4827"/>
 <path fill="none" stroke="rgb(179,179,179)" stroke-linejoin="round" d="M 16160,3201 L 2019,3201"/>
 <path fill="none" stroke="rgb(179,179,179)" stroke-linejoin="round" d="M 16160,1575 L 2019,1575"/>
 <path fill="none" stroke="rgb(179,179,179)" stroke-linejoin="round" d="M 2019,9854 L 2019,9704"/>
 <path fill="none" stroke="rgb(179,179,179)" stroke-linejoin="round" d="M 2019,9854 L 2019,9704"/>
 <path fill="none" stroke="rgb(179,179,179)" stroke-linejoin="round" d="M 5554,9854 L 5554,9704"/>
 <path fill="none" stroke="rgb(179,179,179)" stroke-linejoin="round" d="M 5554,9854 L 5554,9704"/>
 <path fill="none" stroke="rgb(179,179,179)" stroke-linejoin="round" d="M 9090,9854 L 9090,9704"/>
 <path fill="none" stroke="rgb(179,179,179)" stroke-linejoin="round" d="M 9090,9854 L 9090,9704"/>
 <path fill="none" stroke="rgb(179,179,179)" stroke-linejoin="round" d="M 12625,9854 L 12625,9704"/>
 <path fill="none" stroke="rgb(179,179,179)" stroke-linejoin="round" d="M 12625,9854 L 12625,9704"/>
 <path fill="none" stroke="rgb(179,179,179)" stroke-linejoin="round" d="M 16160,9854 L 16160,9704"/>
 <path fill="none" stroke="rgb(179,179,179)" stroke-linejoin="round" d="M 16160,9854 L 16160,9704"/>
 <path fill="none" stroke="rgb(179,179,179)" stroke-linejoin="round" d="M 2019,9704 L 16160,9704"/>
 <path fill="none" stroke="rgb(179,179,179)" stroke-linejoin="round" d="M 1869,9704 L 2019,9704"/>
 <path fill="none" stroke="rgb(179,179,179)" stroke-linejoin="round" d="M 1869,9704 L 2019,9704"/>
 <path fill="none" stroke="rgb(179,179,179)" stroke-linejoin="round" d="M 1869,8078 L 2019,8078"/>
 <path fill="none" stroke="rgb(179,179,179)" stroke-linejoin="round" d="M 1869,8078 L 2019,8078"/>
 <path fill="none" stroke="rgb(179,179,179)" stroke-linejoin="round" d="M 1869,6452 L 2019,6452"/>
 <path fill="none" stroke="rgb(179,179,179)" stroke-linejoin="round" d="M 1869,6452 L 2019,6452"/>
 <path fill="none" stroke="rgb(179,179,179)" stroke-linejoin="round" d="M 1869,4827 L 2019,4827"/>
 <path fill="none" stroke="rgb(179,179,179)" stroke-linejoin="round" d="M 1869,4827 L 2019,4827"/>
 <path fill="none" stroke="rgb(179,179,179)" stroke-linejoin="round" d="M 1869,3201 L 2019,3201"/>
 <path fill="none" stroke="rgb(179,179,179)" stroke-linejoin="round" d="M 1869,3201 L 2019,3201"/>
 <path fill="none" stroke="rgb(179,179,179)" stroke-linejoin="round" d="M 1869,1575 L 2019,1575"/>
 <path fill="none" stroke="rgb(179,179,179)" stroke-linejoin="round" d="M 1869,1575 L 2019,1575"/>
 <path fill="none" stroke="rgb(179,179,179)" stroke-linejoin="round" d="M 2019,9704 L 2019,1575"/>
 <path fill="rgb(0,69,134)" stroke="none" d="M 12978,9704 L 13685,9704 13685,4210 12978,4210 12978,9704 Z"/>
 <path fill="rgb(0,69,134)" stroke="none" d="M 9444,9704 L 10150,9704 10150,8916 9444,8916 9444,9704 Z"/>
 <path fill="rgb(0,69,134)" stroke="none" d="M 5908,9704 L 6615,9704 6615,9385 5908,9385 5908,9704 Z"/>
 <path fill="rgb(0,69,134)" stroke="none" d="M 2372,9704 L 3079,9704 3079,6959 2372,6959 2372,9704 Z"/>
 <path fill="rgb(87,157,28)" stroke="none" d="M 13685,9704 L 14393,9704 14393,4860 13685,4860 13685,9704 Z"/>
 <path fill="rgb(87,157,28)" stroke="none" d="M 10150,9704 L 10857,9704 10857,9039 10150,9039 10150,9704 Z"/>
 <path fill="rgb(87,157,28)" stroke="none" d="M 6615,9704 L 7322,9704 7322,9434 6615,9434 6615,9704 Z"/>
 <path fill="rgb(87,157,28)" stroke="none" d="M 3079,9704 L 3786,9704 3786,6795 3079,6795 3079,9704 Z"/>
 <path fill="rgb(49,64,4)" stroke="none" d="M 14393,9704 L 15100,9704 15100,7720 14393,7720 14393,9704 Z"/>
 <path fill="rgb(49,64,4)" stroke="none" d="M 10857,9704 L 11564,9704 11564,2564 10857,2564 10857,9704 Z"/>
 <path fill="rgb(49,64,4)" stroke="none" d="M 7322,9704 L 8029,9704 8029,9330 7322,9330 7322,9704 Z"/>
 <path fill="rgb(49,64,4)" stroke="none" d="M 3786,9704 L 4494,9704 4494,4689 3786,4689 3786,9704 Z"/>
 <path fill="rgb(255,149,14)" stroke="none" d="M 15100,9704 L 15807,9704 15807,5942 15100,5942 15100,9704 Z"/>
 <path fill="rgb(255,149,14)" stroke="none" d="M 11564,9704 L 12271,9704 12271,7989 11564,7989 11564,9704 Z"/>
 <path fill="rgb(255,149,14)" stroke="none" d="M 8029,9704 L 8736,9704 8736,9437 8029,9437 8029,9704 Z"/>
 <path fill="rgb(255,149,14)" stroke="none" d="M 4494,9704 L 5201,9704 5201,6836 4494,6836 4494,9704 Z"/>
 <text class="TextShape"><tspan class="TextParagraph" font-family="Liberation Sans, sans-serif" font-size="353px" font-weight="400"><tspan class="TextPosition" x="3270" y="10272"><tspan fill="rgb(0,0,0)" stroke="none">hamlet</tspan></tspan></tspan></text>
 <text class="TextShape"><tspan class="TextParagraph" font-family="Liberation Sans, sans-serif" font-size="353px" font-weight="400"><tspan class="TextPosition" x="6568" y="10272"><tspan fill="rgb(0,0,0)" stroke="none">fingerprint</tspan></tspan></tspan></text>
 <text class="TextShape"><tspan class="TextParagraph" font-family="Liberation Sans, sans-serif" font-size="353px" font-weight="400"><tspan class="TextPosition" x="10051" y="10272"><tspan fill="rgb(0,0,0)" stroke="none">hard-maze</tspan></tspan></tspan></text>
 <text class="TextShape"><tspan class="TextParagraph" font-family="Liberation Sans, sans-serif" font-size="353px" font-weight="400"><tspan class="TextPosition" x="13785" y="10272"><tspan fill="rgb(0,0,0)" stroke="none">tobbaco</tspan></tspan></tspan></text>
 <text class="TextShape"><tspan class="TextParagraph" font-family="Liberation Sans, sans-serif" font-size="353px" font-weight="400"><tspan class="TextPosition" x="1584" y="9825"><tspan fill="rgb(0,0,0)" stroke="none">0</tspan></tspan></tspan></text>
 <text class="TextShape"><tspan class="TextParagraph" font-family="Liberation Sans, sans-serif" font-size="353px" font-weight="400"><tspan class="TextPosition" x="1584" y="8199"><tspan fill="rgb(0,0,0)" stroke="none">5</tspan></tspan></tspan></text>
 <text class="TextShape"><tspan class="TextParagraph" font-family="Liberation Sans, sans-serif" font-size="353px" font-weight="400"><tspan class="TextPosition" x="1399" y="6573"><tspan fill="rgb(0,0,0)" stroke="none">10</tspan></tspan></tspan></text>
 <text class="TextShape"><tspan class="TextParagraph" font-family="Liberation Sans, sans-serif" font-size="353px" font-weight="400"><tspan class="TextPosition" x="1399" y="4947"><tspan fill="rgb(0,0,0)" stroke="none">15</tspan></tspan></tspan></text>
 <text class="TextShape"><tspan class="TextParagraph" font-family="Liberation Sans, sans-serif" font-size="353px" font-weight="400"><tspan class="TextPosition" x="1399" y="3321"><tspan fill="rgb(0,0,0)" stroke="none">20</tspan></tspan></tspan></text>
 <text class="TextShape"><tspan class="TextParagraph" font-family="Liberation Sans, sans-serif" font-size="353px" font-weight="400"><tspan class="TextPosition" x="1399" y="1695"><tspan fill="rgb(0,0,0)" stroke="none">25</tspan></tspan></tspan></text>
 <text class="TextShape"><tspan class="TextParagraph" font-family="Liberation Sans, sans-serif" font-size="459px" font-weight="400"><tspan class="TextPosition" x="6773" y="902"><tspan fill="rgb(0,0,0)" stroke="none">Challenge Image Comparison</tspan></tspan></tspan></text>
 <path fill="rgb(0,69,134)" stroke="none" d="M 16770,5140 L 16664,5140 16664,4929 16875,4929 16875,5140 16770,5140 Z"/>
 <path fill="rgb(87,157,28)" stroke="none" d="M 16770,5638 L 16664,5638 16664,5427 16875,5427 16875,5638 16770,5638 Z"/>
 <path fill="rgb(49,64,4)" stroke="none" d="M 16770,6135 L 16664,6135 16664,5924 16875,5924 16875,6135 16770,6135 Z"/>
 <path fill="rgb(255,149,14)" stroke="none" d="M 16770,6633 L 16664,6633 16664,6422 16875,6422 16875,6633 16770,6633 Z"/>
 <text class="TextShape"><tspan class="TextParagraph" font-family="Liberation Sans, sans-serif" font-size="353px" font-weight="400"><tspan class="TextPosition" x="16975" y="5154"><tspan fill="rgb(0,0,0)" stroke="none">cuda_surface</tspan></tspan></tspan></text>
 <text class="TextShape"><tspan class="TextParagraph" font-family="Liberation Sans, sans-serif" font-size="353px" font-weight="400"><tspan class="TextPosition" x="16975" y="5652"><tspan fill="rgb(0,0,0)" stroke="none">cuda_global</tspan></tspan></tspan></text>
 <text class="TextShape"><tspan class="TextParagraph" font-family="Liberation Sans, sans-serif" font-size="353px" font-weight="400"><tspan class="TextPosition" x="16975" y="6149"><tspan fill="rgb(0,0,0)" stroke="none">mpi</tspan></tspan></tspan></text>
 <text class="TextShape"><tspan class="TextParagraph" font-family="Liberation Sans, sans-serif" font-size="353px" font-weight="400"><tspan class="TextPosition" x="16975" y="6647"><tspan fill="rgb(0,0,0)" stroke="none">serial</tspan></tspan></tspan></text>
 <text class="TextShape"><tspan class="TextParagraph" font-family="Liberation Sans, sans-serif" font-size="318px" font-weight="400"><tspan class="TextPosition" x="7880" y="10970"><tspan fill="rgb(0,0,0)" stroke="none">Image name</tspan></tspan></tspan></text>
 <text class="TextShape" transform="translate(837,7372) rotate(-90) translate(-837,-7372)"><tspan class="TextParagraph" font-family="Liberation Sans, sans-serif" font-size="318px" font-weight="400"><tspan class="TextPosition" x="837" y="7372"><tspan fill="rgb(0,0,0)" stroke="none">Processing time (ms)</tspan></tspan></tspan></text>
</svg>