<?xml version="1.0" encoding="UTF-8"?>
<!DOCTYPE svg PUBLIC "-//W3C//DTD SVG 1.1//EN" "http://www.w3.org/Graphics/SVG/1.1/DTD/svg11.dtd">
<svg width="240mm" height="132mm" viewBox="0 0 24000 13200" version="1.1" xmlns="http://www.w3.org/2000/svg" stroke-width="28.222" stroke-linejoin="round" xml:space="preserve">
 <path fill="rgb(255,255,255)" stroke="none" d="M 11977,13207 L 0,13207 0,0 23954,0 23954,13207 11977,13207 Z"/>
 <path fill="none" stroke="rgb(179,179,179)" stroke-linejoin="round" d="M 11596,11315 L 2111,11315 2111,2589 21080,2589 21080,11315 11596,11315 Z"/>
 <path fill="none" stroke="rgb(179,179,179)" stroke-linejoin="round" d="M 21080,11314 L 2111,11314"/>
 <path fill="none" stroke="rgb(179,179,179)" stroke-linejoin="round" d="M 21080,9568 L 2111,9568"/>
 <path fill="none" stroke="rgb(179,179,179)" stroke-linejoin="round" d="M 21080,7823 L 2111,7823"/>
 <path fill="none" stroke="rgb(179,179,179)" stroke-linejoin="round" d="M 21080,6078 L 2111,6078"/>
 <path fill="none" stroke="rgb(179,179,179)" stroke-linejoin="round" d="M 21080,4333 L 2111,4333"/>
 <path fill="none" stroke="rgb(179,179,179)" stroke-linejoin="round" d="M 21080,2587 L 2111,2587"/>
 <path fill="none" stroke="rgb(179,179,179)" stroke-linejoin="round" d="M 2111,11464 L 2111,11314"/>
 <path fill="none" stroke="rgb(179,179,179)" stroke-linejoin="round" d="M 2111,11464 L 2111,11314"/>
 <path fill="none" stroke="rgb(179,179,179)" stroke-linejoin="round" d="M 5905,11464 L 5905,11314"/>
 <path fill="none" stroke="rgb(179,179,179)" stroke-linejoin="round" d="M 5905,11464 L 5905,11314"/>
 <path fill="none" stroke="rgb(179,179,179)" stroke-linejoin="round" d="M 9699,11464 L 9699,11314"/>
 <path fill="none" stroke="rgb(179,179,179)" stroke-linejoin="round" d="M 9699,11464 L 9699,11314"/>
 <path fill="none" stroke="rgb(179,179,179)" stroke-linejoin="round" d="M 13492,11464 L 13492,11314"/>
 <path fill="none" stroke="rgb(179,179,179)" stroke-linejoin="round" d="M 13492,11464 L 13492,11314"/>
 <path fill="none" stroke="rgb(179,179,179)" stroke-linejoin="round" d="M 17286,11464 L 17286,11314"/>
 <path fill="none" stroke="rgb(179,179,179)" stroke-linejoin="round" d="M 17286,11464 L 17286,11314"/>
 <path fill="none" stroke="rgb(179,179,179)" stroke-linejoin="round" d="M 21080,11464 L 21080,11314"/>
 <path fill="none" stroke="rgb(179,179,179)" stroke-linejoin="round" d="M 21080,11464 L 21080,11314"/>
 <path fill="none" stroke="rgb(179,179,179)" stroke-linejoin="round" d="M 2111,11314 L 21080,11314"/>
 <path fill="none" stroke="rgb(179,179,179)" stroke-linejoin="round" d="M 1961,11314 L 2111,11314"/>
 <path fill="none" stroke="rgb(179,179,179)" stroke-linejoin="round" d="M 1961,11314 L 2111,11314"/>
 <path fill="none" stroke="rgb(179,179,179)" stroke-linejoin="round" d="M 1961,9568 L 2111,9568"/>
 <path fill="none" stroke="rgb(179,179,179)" stroke-linejoin="round" d="M 1961,9568 L 2111,9568"/>
 <path fill="none" stroke="rgb(179,179,179)" stroke-linejoin="round" d="M 1961,7823 L 2111,7823"/>
 <path fill="none" stroke="rgb(179,179,179)" stroke-linejoin="round" d="M 1961,7823 L 2111,7823"/>
 <path fill="none" stroke="rgb(179,179,179)" stroke-linejoin="round" d="M 1961,6078 L 2111,6078"/>
 <path fill="none" stroke="rgb(179,179,179)" stroke-linejoin="round" d="M 1961,6078 L 2111,6078"/>
 <path fill="none" stroke="rgb(179,179,179)" stroke-linejoin="round" d="M 1961,4333 L 2111,4333"/>
 <path fill="none" stroke="rgb(179,179,179)" stroke-linejoin="round" d="M 1961,4333 L 2111,4333"/>
 <path fill="none" stroke="rgb(179,179,179)" stroke-linejoin="round" d="M 1961,2587 L 2111,2587"/>
 <path fill="none" stroke="rgb(179,179,179)" stroke-linejoin="round" d="M 1961,2587 L 2111,2587"/>
 <path fill="none" stroke="rgb(179,179,179)" stroke-linejoin="round" d="M 2111,11314 L 2111,2587"/>
 <path fill="rgb(0,69,134)" stroke="none" d="M 17665,11314 L 18424,11314 18424,5416 17665,5416 17665,11314 Z"/>
 <path fill="rgb(0,69,134)" stroke="none" d="M 13871,11314 L 14630,11314 14630,10468 13871,10468 13871,11314 Z"/>
 <path fill="rgb(0,69,134)" stroke="none" d="M 10078,11314 L 10837,11314 10837,10971 10078,10971 10078,11314 Z"/>
 <path fill="rgb(0,69,134)" stroke="none" d="M 6284,11314 L 7043,11314 7043,8367 6284,8367 6284,11314 Z"/>
 <path fill="rgb(0,69,134)" stroke="none" d="M 2490,11314 L 3249,11314 3249,11163 2490,11163 2490,11314 Z"/>
 <path fill="rgb(255,211,32)" stroke="none" d="M 18424,11314 L 19182,11314 19182,6114 18424,6114 18424,11314 Z"/>
 <path fill="rgb(255,211,32)" stroke="none" d="M 14630,11314 L 15388,11314 15388,10600 14630,10600 14630,11314 Z"/>
 <path fill="rgb(255,211,32)" stroke="none" d="M 10837,11314 L 11596,11314 11596,11025 10837,11025 10837,11314 Z"/>
 <path fill="rgb(255,211,32)" stroke="none" d="M 7043,11314 L 7802,11314 7802,8192 7043,8192 7043,11314 Z"/>
 <path fill="rgb(255,211,32)" stroke="none" d="M 3249,11314 L 4008,11314 4008,11166 3249,11166 3249,11314 Z"/>
 <path fill="rgb(126,0,33)" stroke="none" d="M 19183,11314 L 19941,11314 19941,3650 19183,3650 19183,11314 Z"/>
 <path fill="rgb(126,0,33)" stroke="none" d="M 15389,11314 L 16147,11314 16147,9185 15389,9185 15389,11314 Z"/>
 <path fill="rgb(126,0,33)" stroke="none" d="M 11596,11314 L 12353,11314 12353,10913 11596,10913 11596,11314 Z"/>
 <path fill="rgb(126,0,33)" stroke="none" d="M 7802,11314 L 8560,11314 8560,5931 7802,5931 7802,11314 Z"/>
 <path fill="rgb(126,0,33)" stroke="none" d="M 4008,11314 L 4766,11314 4766,11252 4008,11252 4008,11314 Z"/>
 <path fill="rgb(49,64,4)" stroke="none" d="M 19941,11314 L 20700,11314 20700,7276 19941,7276 19941,11314 Z"/>
 <path fill="rgb(49,64,4)" stroke="none" d="M 16147,11314 L 16906,11314 16906,9473 16147,9473 16147,11314 Z"/>
 <path fill="rgb(49,64,4)" stroke="none" d="M 12353,11314 L 13112,11314 13112,11027 12353,11027 12353,11314 Z"/>
 <path fill="rgb(49,64,4)" stroke="none" d="M 8560,11314 L 9319,11314 9319,8235 8560,8235 8560,11314 Z"/>
 <path fill="rgb(49,64,4)" stroke="none" d="M 4766,11314 L 5525,11314 5525,11268 4766,11268 4766,11314 Z"/>
 <text class="TextShape"><tspan class="TextParagraph" font-family="Liberation Sans, sans-serif" font-size="353px" font-weight="400"><tspan class="TextPosition" x="3135" y="11882"><tspan fill="rgb(0,0,0)" stroke="none">3pixeldeath</tspan></tspan></tspan></text>
 <text class="TextShape"><tspan class="TextParagraph" font-family="Liberation Sans, sans-serif" font-size="353px" font-weight="400"><tspan class="TextPosition" x="7286" y="11882"><tspan fill="rgb(0,0,0)" stroke="none">hamlet</tspan></tspan></tspan></text>
 <text class="TextShape"><tspan class="TextParagraph" font-family="Liberation Sans, sans-serif" font-size="353px" font-weight="400"><tspan class="TextPosition" x="11172" y="11882"><tspan fill="rgb(0,0,0)" stroke="none">finger</tspan></tspan></tspan></text>
 <text class="TextShape"><tspan class="TextParagraph" font-family="Liberation Sans, sans-serif" font-size="353px" font-weight="400"><tspan class="TextPosition" x="14583" y="11882"><tspan fill="rgb(0,0,0)" stroke="none">hard-maze</tspan></tspan></tspan></text>
 <text class="TextShape"><tspan class="TextParagraph" font-family="Liberation Sans, sans-serif" font-size="353px" font-weight="400"><tspan class="TextPosition" x="18575" y="11882"><tspan fill="rgb(0,0,0)" stroke="none">tobbaco</tspan></tspan></tspan></text>
 <text class="TextShape"><tspan class="TextParagraph" font-family="Liberation Sans, sans-serif" font-size="353px" font-weight="400"><tspan class="TextPosition" x="1676" y="11435"><tspan fill="rgb(0,0,0)" stroke="none">0</tspan></tspan></tspan></text>
 <text class="TextShape"><tspan class="TextParagraph" font-family="Liberation Sans, sans-serif" font-size="353px" font-weight="400"><tspan class="TextPosition" x="1676" y="9689"><tspan fill="rgb(0,0,0)" stroke="none">5</tspan></tspan></tspan></text>
 <text class="TextShape"><tspan class="TextParagraph" font-family="Liberation Sans, sans-serif" font-size="353px" font-weight="400"><tspan class="TextPosition" x="1491" y="7944"><tspan fill="rgb(0,0,0)" stroke="none">10</tspan></tspan></tspan></text>
 <text class="TextShape"><tspan class="TextParagraph" font-family="Liberation Sans, sans-serif" font-size="353px" font-weight="400"><tspan class="TextPosition" x="1491" y="6198"><tspan fill="rgb(0,0,0)" stroke="none">15</tspan></tspan></tspan></text>
 <text class="TextShape"><tspan class="TextParagraph" font-family="Liberation Sans, sans-serif" font-size="353px" font-weight="400"><tspan class="TextPosition" x="1491" y="4453"><tspan fill="rgb(0,0,0)" stroke="none">20</tspan></tspan></tspan></text>
 <text class="TextShape"><tspan class="TextParagraph" font-family="Liberation Sans, sans-serif" font-size="353px" font-weight="400"><tspan class="TextPosition" x="1491" y="2707"><tspan fill="rgb(0,0,0)" stroke="none">25</tspan></tspan></tspan></text>
 <text class="TextShape"><tspan class="TextParagraph" font-family="Liberation Sans, sans-serif" font-size="459px" font-weight="400"><tspan class="TextPosition" x="7214" y="935"><tspan fill="rgb(0,0,0)" stroke="none">Implementation Comparison (Challenge Images)</tspan></tspan></tspan></text>
 <text class="TextShape"><tspan class="TextParagraph" font-family="Liberation Sans, sans-serif" font-size="388px" font-weight="400"><tspan class="TextPosition" x="9304" y="1929"><tspan fill="rgb(0,0,0)" stroke="none">Images can be found in &quot;./data&quot;</tspan></tspan></tspan></text>
 <path fill="rgb(0,69,134)" stroke="none" d="M 21781,5962 L 21675,5962 21675,5751 21886,5751 21886,5962 21781,5962 Z"/>
 <path fill="rgb(255,211,32)" stroke="none" d="M 21781,6460 L 21675,6460 21675,6249 21886,6249 21886,6460 21781,6460 Z"/>
 <path fill="rgb(126,0,33)" stroke="none" d="M 21781,6957 L 21675,6957 21675,6746 21886,6746 21886,6957 21781,6957 Z"/>
 <path fill="rgb(49,64,4)" stroke="none" d="M 21781,7455 L 21675,7455 21675,7244 21886,7244 21886,7455 21781,7455 Z"/>
 <text class="TextShape"><tspan class="TextParagraph" font-family="Liberation Sans, sans-serif" font-size="353px" font-weight="400"><tspan class="TextPosition" x="21986" y="5976"><tspan fill="rgb(0,0,0)" stroke="none">gpu</tspan></tspan></tspan></text>
 <text class="TextShape"><tspan class="TextParagraph" font-family="Liberation Sans, sans-serif" font-size="353px" font-weight="400"><tspan class="TextPosition" x="21986" y="6474"><tspan fill="rgb(0,0,0)" stroke="none">gpu_global</tspan></tspan></tspan></text>
 <text class="TextShape"><tspan class="TextParagraph" font-family="Liberation Sans, sans-serif" font-size="353px" font-weight="400"><tspan class="TextPosition" x="21986" y="6971"><tspan fill="rgb(0,0,0)" stroke="none">mpi</tspan></tspan></tspan></text>
 <text class="TextShape"><tspan class="TextParagraph" font-family="Liberation Sans, sans-serif" font-size="353px" font-weight="400"><tspan class="TextPosition" x="21986" y="7469"><tspan fill="rgb(0,0,0)" stroke="none">union</tspan></tspan></tspan></text>
 <text class="TextShape"><tspan class="TextParagraph" font-family="Liberation Sans, sans-serif" font-size="318px" font-weight="400"><tspan class="TextPosition" x="9750" y="12613"><tspan fill="rgb(0,0,0)" stroke="none">Processing Time (ms)</tspan></tspan></tspan></text>
 <text class="TextShape" transform="translate(837,7625) rotate(-90) translate(-837,-7625)"><tspan class="TextParagraph" font-family="Liberation Sans, sans-serif" font-size="318px" font-weight="400"><tspan class="TextPosition" x="837" y="7625"><tspan fill="rgb(0,0,0)" stroke="none">Image</tspan></tspan></tspan></text>
</svg>